<svg
    xmlns="http://www.w3.org/2000/svg"
    width="20"
    height="20"
    viewBox="0 0 20 20"
    fill="none"
>
    <path
        d="M14.9022 16.0807C13.4845 16.9796 11.8032 17.5002 10.0002 17.5002C5.50676 17.5002 1.76845 14.267 0.984695 10.0002C1.3486 8.01904 2.34943 6.26077 3.76705 4.9455L1.16138 2.33983L2.3399 1.16132L18.8391 17.6604L17.6606 18.839L14.9022 16.0807ZM4.94633 6.12477C3.83894 7.13348 3.0315 8.47269 2.68565 10.0002C3.45018 13.3768 6.4705 15.8335 10.0002 15.8335C11.3331 15.8335 12.5933 15.4832 13.6869 14.8654L11.9967 13.1751C11.4186 13.5394 10.734 13.7502 10.0002 13.7502C7.92915 13.7502 6.25021 12.0712 6.25021 10.0002C6.25021 9.26636 6.46097 8.58177 6.82525 8.00371L4.94633 6.12477ZM10.7616 11.94L8.06038 9.23886C7.96775 9.47469 7.91688 9.73144 7.91688 10.0002C7.91688 11.1508 8.84966 12.0835 10.0002 12.0835C10.2689 12.0835 10.5257 12.0326 10.7616 11.94ZM17.339 13.8271L16.1467 12.6348C16.6932 11.8557 17.0962 10.9655 17.3147 10.0002C16.5502 6.62351 13.5299 4.16682 10.0002 4.16682C9.29533 4.16682 8.61075 4.2648 7.9604 4.44851L6.64538 3.13348C7.68439 2.72468 8.81608 2.50016 10.0002 2.50016C14.4937 2.50016 18.232 5.73329 19.0157 10.0002C18.7556 11.4165 18.1698 12.719 17.339 13.8271ZM9.76908 6.25717C9.8455 6.25252 9.92258 6.25016 10.0002 6.25016C12.0712 6.25016 13.7502 7.92909 13.7502 10.0002C13.7502 10.0778 13.7478 10.1549 13.7432 10.2313L9.76908 6.25717Z"
        fill="#889096"
    />
</svg>